#!OML:ASF F:\VICON\USERDATA\INSTALL\rory3\rory3.ASF
:FULLY-SPECIFIED
:DEGREES
753
root -1.76519 16.6908 7.60956 14.9891 -5.89522 -3.40891
lowerback -1.08627 1.11511 7.73733
upperback -4.35619 1.56703 -0.49676
thorax -3.70634 0.505083 -4.88638
lowerneck -13.2292 -6.75637 -10.7233
upperneck 18.2492 -8.37322 6.65202
head 8.61222 -4.06403 3.01466
rclavicle 2.08289e-014 -1.35174e-014
rhumerus -42.3567 15.9706 -87.8664
rradius 56.8099
rwrist 13.1788
rhand -28.8122 -49.1504
rfingers 7.12502
rthumb -2.1703 -79.1191
lclavicle 2.08289e-014 -1.35174e-014
lhumerus -49.9071 -4.9536 80.1954
lradius 65.845
lwrist -0.800479
lhand -33.3246 -43.7245
lfingers 7.12502
lthumb -6.5276 -13.8451
rfemur -33.0677 7.44956 29.9548
rtibia 46.3648
rfoot -18.8519 -16.0663
rtoes -7.35042
lfemur -69.2967 20.9963 -3.56999
ltibia 124.53
lfoot -15.1751 -7.91901
ltoes -7.82878
754
root -1.80661 16.8156 7.64132 14.9897 -5.90321 -3.23482
lowerback -1.18796 1.17594 7.52151
upperback -4.50215 1.64213 -0.518809
thorax -3.79419 0.541979 -4.78858
lowerneck -12.8627 -6.76216 -10.8036
upperneck 18.5475 -8.4072 6.59108
head 8.65157 -4.10108 3.01253
rclavicle 9.56651e-015 3.52843e-015
rhumerus -43.0344 16.7661 -88.1509
rradius 57.5294
rwrist 13.1188
rhand -28.9503 -49.2315
rfingers 7.12502
rthumb -2.30372 -79.1988
lclavicle 9.56651e-015 3.52843e-015
lhumerus -50.4968 -5.44981 80.4273
lradius 66.7152
lwrist -1.42383
lhand -33.0575 -43.6217
lfingers 7.12502
lthumb -6.26969 -13.7345
rfemur -31.8509 7.57011 29.8752
rtibia 44.3391
rfoot -17.5838 -15.8662
rtoes -7.72931
lfemur -69.5981 21.6832 -3.64923
ltibia 124.811
lfoot -15.3229 -7.98412
ltoes -5.8678
755
root -1.85388 16.9678 7.6814 15.062 -6.06161 -3.0354
lowerback -1.43659 1.32158 7.21427
upperback -4.73525 1.81955 -0.582644
thorax -3.87761 0.630675 -4.68169
lowerneck -12.2033 -6.80906 -10.9378
upperneck 18.832 -8.54313 6.6374
head 8.65009 -4.18648 3.0505
rclavicle 2.15806e-014 2.127e-014
rhumerus -43.8176 17.4084 -88.438
rradius 58.0919
rwrist 13.3631
rhand -28.771 -49.3908
rfingers 7.12502
rthumb -2.13054 -79.3599
lclavicle 2.15806e-014 2.127e-014
lhumerus -51.1701 -6.14853 80.7149
lradius 67.4461
lwrist -1.71168
lhand -32.8 -43.4632
lfingers 7.12502
lthumb -6.02109 -13.5688
rfemur -30.7441 7.88693 29.6881
rtibia 42.2359
rfoot -15.993 -15.4525
rtoes -8.35189
lfemur -69.6323 22.6739 -3.77048
ltibia 125.113
lfoot -15.7124 -7.69974
ltoes -6.82517
756
root -1.90474 17.1385 7.71831 15.1925 -6.41806 -2.79774
lowerback -1.73005 1.53321 6.78971
upperback -4.88262 2.07676 -0.711122
thorax -3.83686 0.770072 -4.57332
lowerneck -11.8785 -6.85948 -10.8926
upperneck 19.1071 -8.68682 6.69381
head 8.69836 -4.2543 3.05334
rclavicle -1.00821e-014 -1.49089e-015
rhumerus -44.4127 17.7648 -88.6746
rradius 58.6359
rwrist 13.6623
rhand -29.1972 -48.2675
rfingers 7.12502
rthumb -2.54213 -78.2321
lclavicle -1.00821e-014 -1.49089e-015
lhumerus -51.4885 -6.76092 80.8493
lradius 67.8395
lwrist -1.85464
lhand -32.5044 -43.9003
lfingers 7.12502
lthumb -5.73578 -13.998
rfemur -29.8406 8.45074 29.3621
rtibia 40.0855
rfoot -14.1136 -14.8108
rtoes -8.60561
lfemur -69.737 23.9692 -3.96578
ltibia 125.54
lfoot -15.9669 -7.56231
ltoes -7.05853
757
root -1.94864 17.2999 7.74256 15.0725 -6.43506 -2.38118
lowerback -1.6858 1.52836 6.2626
upperback -4.94065 2.06735 -0.839894
thorax -3.93146 0.777686 -4.4138
lowerneck -11.7329 -6.80869 -10.7951
upperneck 19.3088 -8.67884 6.7618
head 8.73743 -4.24148 3.06661
rclavicle -1.72756e-014 4.57205e-015
rhumerus -44.6902 18.1601 -88.8617
rradius 58.8184
rwrist 14.2371
rhand -28.3431 -48.0235
rfingers 7.12502
rthumb -1.71729 -77.9964
lclavicle -1.72756e-014 4.57205e-015
lhumerus -51.7296 -6.9688 80.8423
lradius 68.2022
lwrist -1.813
lhand -32.386 -44.4141
lfingers 7.12502
lthumb -5.62146 -14.5087
rfemur -28.576 8.71522 28.9287
rtibia 37.8754
rfoot -11.8196 -14.295
rtoes -9.07862
lfemur -70.0871 24.6882 -4.22712
ltibia 126.245
lfoot -16.0099 -7.64934
ltoes -6.54188
758
root -1.99102 17.4412 7.73675 15.1689 -6.77408 -2.1052
lowerback -1.42097 1.59398 5.66128
upperback -5.25167 2.17286 -0.903049
thorax -4.4087 0.829272 -4.15796
lowerneck -11.1024 -6.6637 -10.7723
upperneck 19.4321 -8.58902 6.90495
head 8.66004 -4.19987 3.14177
rclavicle -5.2181e-016 6.4605e-015
rhumerus -45.0224 18.6308 -89.1205
rradius 58.6556
rwrist 14.7391
rhand -26.9004 -48.0333
rfingers 7.12502
rthumb -0.32386 -78.0128
lclavicle -5.2181e-016 6.4605e-015
lhumerus -52.2886 -7.09405 80.8623
lradius 68.6492
lwrist -1.53779
lhand -32.4066 -44.2324
lfingers 7.12502
lthumb -5.64133 -14.3275
rfemur -27.5012 9.20386 28.5167
rtibia 35.6956
rfoot -9.12834 -13.4191
rtoes -9.21748
lfemur -71.0172 26.1717 -4.40284
ltibia 127.356
lfoot -16.0512 -8.1398
ltoes -6.30961
759
root -2.02946 17.6046 7.76179 15.1953 -6.81233 -1.81639
lowerback -1.53079 1.58851 5.28475
upperback -5.4418 2.15555 -0.984975
thorax -4.55525 0.825678 -4.03203
lowerneck -10.527 -6.5933 -10.8096
upperneck 19.643 -8.59229 7.05781
head 8.63474 -4.2047 3.21655
rclavicle -2.46369e-014 1.3418e-014
rhumerus -45.4148 18.9923 -89.3617
rradius 58.6089
rwrist 14.8323
rhand -26.44 -47.4869
rfingers 7.12502
rthumb 0.120822 -77.4666
lclavicle -2.46369e-014 1.3418e-014
lhumerus -52.8024 -7.24932 80.8715
lradius 68.9547
lwrist -1.10412
lhand -32.269 -43.6931
lfingers 7.12502
lthumb -5.50841 -13.7847
rfemur -26.305 9.17223 28.1299
rtibia 33.5534
rfoot -6.83218 -12.187
rtoes -9.36723
lfemur -71.4884 27.1509 -4.55037
ltibia 128.396
lfoot -16.2119 -8.39494
ltoes -4.67287
760
root -2.06558 17.7786 7.7868 15.045 -6.62088 -1.60773
lowerback -1.65987 1.53329 5.16398
upperback -5.30367 2.06589 -1.09413
thorax -4.34528 0.792931 -4.06944
lowerneck -10.6144 -6.58624 -10.6872
upperneck 19.8795 -8.63401 7.16222
head 8.73337 -4.20409 3.22574
rclavicle -1.03741e-015 5.1684e-015
rhumerus -45.2405 19.1116 -89.4054
rradius 58.4125
rwrist 15.0255
rhand -26.0504 -47.397
rfingers 7.12502
rthumb 0.497109 -77.3761
lclavicle -1.03741e-015 5.1684e-015
lhumerus -52.7814 -7.38837 80.7595
lradius 69.1626
lwrist -0.479197
lhand -32.2868 -43.3763
lfingers 7.12502
lthumb -5.52564 -13.4683
rfemur -25.0854 8.99251 27.8866
rtibia 31.5194
rfoot -4.53236 -11.0019
rtoes -12.4255
lfemur -71.7987 28.0103 -4.49261
ltibia 129.456
lfoot -16.3962 -8.66838
ltoes -3.429
